<svg width="102" height="23" viewBox="0 0 102 23" fill="none" xmlns="http://www.w3.org/2000/svg">
<path fill-rule="evenodd" clip-rule="evenodd" d="M4.21527 13.1602L3.22 15.0336V21.3273H0V0.83637H3.22V9.76455L7.43527 0.83637H10.6553L6.17655 9.96946L10.6553 21.3273H7.34745L4.21527 13.1602ZM15.2009 16.6144C15.2009 17.3559 15.3521 17.878 15.6546 18.1805C15.9571 18.4829 16.3621 18.6342 16.8695 18.6342C17.3768 18.6342 17.7818 18.4829 18.0843 18.1805C18.3868 17.878 18.538 17.3559 18.538 16.6144V5.54928C18.538 4.8077 18.3868 4.28567 18.0843 3.98319C17.7818 3.6807 17.3768 3.52946 16.8695 3.52946C16.3621 3.52946 15.9571 3.6807 15.6546 3.98319C15.3521 4.28567 15.2009 4.8077 15.2009 5.54928V16.6144ZM11.9809 5.75419C11.9809 4.09539 12.4005 2.82204 13.2396 1.9341C14.0788 1.04615 15.2887 0.602188 16.8695 0.602188C18.4502 0.602188 19.6601 1.04615 20.4993 1.9341C21.3384 2.82204 21.758 4.09539 21.758 5.75419V16.4095C21.758 18.0683 21.3384 19.3416 20.4993 20.2296C19.6601 21.1175 18.4502 21.5615 16.8695 21.5615C15.2887 21.5615 14.0788 21.1175 13.2396 20.2296C12.4005 19.3416 11.9809 18.0683 11.9809 16.4095V5.75419ZM27.0355 6.48601V21.3273H24.1375V0.83637H28.1771L31.4849 13.1016V0.83637H34.3536V21.3273H31.0458L27.0355 6.48601ZM36.5867 5.75419C36.5867 4.09539 36.9819 2.82204 37.7723 1.9341C38.5626 1.04615 39.7482 0.602188 41.3289 0.602188C42.9096 0.602188 44.0952 1.04615 44.8855 1.9341C45.6759 2.82204 46.0711 4.09539 46.0711 5.75419V6.39819H43.0267V5.54928C43.0267 4.8077 42.8852 4.28567 42.6023 3.98319C42.3193 3.6807 41.9241 3.52946 41.4167 3.52946C40.9093 3.52946 40.5142 3.6807 40.2312 3.98319C39.9482 4.28567 39.8067 4.8077 39.8067 5.54928C39.8067 6.25183 39.9628 6.87143 40.2751 7.4081C40.5873 7.94477 40.9776 8.45216 41.446 8.93028C41.9144 9.4084 42.4169 9.88652 42.9535 10.3646C43.4902 10.8428 43.9927 11.3648 44.4611 11.9307C44.9295 12.4967 45.3198 13.1407 45.632 13.8627C45.9442 14.5848 46.1004 15.4337 46.1004 16.4095C46.1004 18.0683 45.6954 19.3416 44.8855 20.2296C44.0757 21.1175 42.8804 21.5615 41.2996 21.5615C39.7189 21.5615 38.5236 21.1175 37.7137 20.2296C36.9038 19.3416 36.4989 18.0683 36.4989 16.4095V15.1507H39.5433V16.6144C39.5433 17.3559 39.6945 17.8731 39.997 18.1658C40.2995 18.4586 40.7044 18.6049 41.2118 18.6049C41.7192 18.6049 42.1241 18.4586 42.4266 18.1658C42.7291 17.8731 42.8804 17.3559 42.8804 16.6144C42.8804 15.9118 42.7242 15.2922 42.412 14.7556C42.0998 14.2189 41.7095 13.7115 41.2411 13.2334C40.7727 12.7552 40.2702 12.2771 39.7335 11.799C39.1969 11.3209 38.6944 10.7989 38.226 10.2329C37.7576 9.66697 37.3673 9.02298 37.0551 8.30092C36.7428 7.57885 36.5867 6.72995 36.5867 5.75419ZM47.3382 0.83637H57.2909V3.76364H53.9245V21.3273H50.7045V3.76364H47.3382V0.83637ZM65.7591 21.3273C65.7201 21.1907 65.681 21.0638 65.642 20.9467C65.603 20.8296 65.5688 20.6833 65.5395 20.5076C65.5103 20.332 65.4908 20.1076 65.481 19.8344C65.4712 19.5612 65.4664 19.2196 65.4664 18.8098V15.5898C65.4664 14.6336 65.3005 13.9603 64.9687 13.57C64.637 13.1797 64.1003 12.9846 63.3587 12.9846H62.2464V21.3273H59.0264V0.83637H63.8856C65.5639 0.83637 66.7787 1.22667 67.5301 2.00728C68.2814 2.78789 68.6571 3.96854 68.6571 5.54928V7.15928C68.6571 9.26693 67.9545 10.6525 66.5495 11.316C67.3691 11.6478 67.9301 12.1893 68.2326 12.9406C68.5351 13.692 68.6864 14.6043 68.6864 15.6776V18.8391C68.6864 19.3465 68.7059 19.7905 68.7449 20.171C68.7839 20.5516 68.8815 20.937 69.0376 21.3273H65.7591ZM62.2464 3.76364V10.0573H63.5051C64.1101 10.0573 64.5833 9.90116 64.9248 9.58892C65.2663 9.27667 65.4371 8.71074 65.4371 7.8911V5.87128C65.4371 5.1297 65.3054 4.59304 65.0419 4.26128C64.7785 3.92952 64.3638 3.76364 63.7978 3.76364H62.2464ZM74.198 0.83637V16.6436C74.198 17.3852 74.3492 17.9024 74.6517 18.1951C74.9542 18.4878 75.3591 18.6342 75.8665 18.6342C76.3739 18.6342 76.7789 18.4878 77.0814 18.1951C77.3838 17.9024 77.5351 17.3852 77.5351 16.6436V0.83637H80.5795V16.4387C80.5795 18.0975 80.1745 19.3709 79.3646 20.2588C78.5548 21.1468 77.3595 21.5907 75.7787 21.5907C74.198 21.5907 73.0027 21.1468 72.1928 20.2588C71.3829 19.3709 70.978 18.0975 70.978 16.4387V0.83637H74.198ZM91.9038 0.83637H101.857V3.76364H98.4902V21.3273H95.2702V3.76364H91.9038V0.83637Z" fill="white"/>
<path fill-rule="evenodd" clip-rule="evenodd" d="M82.109 11.4851L90.4726 1.03058V21.9397L82.109 11.4851Z" fill="#00A4E5"/>
</svg>
