<svg width="80" height="18" viewBox="0 0 80 18" fill="none" xmlns="http://www.w3.org/2000/svg">
<path fill-rule="evenodd" clip-rule="evenodd" d="M3.29891 10.2993L2.52 11.7654V16.6909H0V0.654525H2.52V7.6418L5.81891 0.654525H8.33891L4.83382 7.80216L8.33891 16.6909H5.75018L3.29891 10.2993ZM11.8964 13.0025C11.8964 13.5829 12.0147 13.9914 12.2515 14.2282C12.4882 14.4649 12.8051 14.5833 13.2022 14.5833C13.5993 14.5833 13.9162 14.4649 14.1529 14.2282C14.3896 13.9914 14.508 13.5829 14.508 13.0025V4.34289C14.508 3.76252 14.3896 3.35398 14.1529 3.11725C13.9162 2.88052 13.5993 2.76216 13.2022 2.76216C12.8051 2.76216 12.4882 2.88052 12.2515 3.11725C12.0147 3.35398 11.8964 3.76252 11.8964 4.34289V13.0025ZM9.37636 4.50325C9.37636 3.20506 9.70472 2.20853 10.3615 1.51362C11.0182 0.818703 11.9651 0.471252 13.2022 0.471252C14.4393 0.471252 15.3862 0.818703 16.0429 1.51362C16.6996 2.20853 17.028 3.20506 17.028 4.50325V12.8422C17.028 14.1403 16.6996 15.1369 16.0429 15.8318C15.3862 16.5267 14.4393 16.8742 13.2022 16.8742C11.9651 16.8742 11.0182 16.5267 10.3615 15.8318C9.70472 15.1369 9.37636 14.1403 9.37636 12.8422V4.50325ZM21.1582 5.07598V16.6909H18.8902V0.654525H22.0516L24.6404 10.2534V0.654525H26.8855V16.6909H24.2967L21.1582 5.07598ZM28.6331 4.50325C28.6331 3.20506 28.9424 2.20853 29.5609 1.51362C30.1795 0.818703 31.1073 0.471252 32.3444 0.471252C33.5815 0.471252 34.5093 0.818703 35.1278 1.51362C35.7464 2.20853 36.0556 3.20506 36.0556 4.50325V5.00725H33.6731V4.34289C33.6731 3.76252 33.5624 3.35398 33.3409 3.11725C33.1195 2.88052 32.8102 2.76216 32.4131 2.76216C32.016 2.76216 31.7067 2.88052 31.4853 3.11725C31.2638 3.35398 31.1531 3.76252 31.1531 4.34289C31.1531 4.89271 31.2753 5.37761 31.5196 5.79762C31.764 6.21762 32.0695 6.61471 32.436 6.98889C32.8025 7.36307 33.1958 7.73725 33.6158 8.11143C34.0358 8.48562 34.4291 8.89416 34.7956 9.33707C35.1622 9.77998 35.4676 10.284 35.712 10.8491C35.9564 11.4142 36.0785 12.0785 36.0785 12.8422C36.0785 14.1403 35.7616 15.1369 35.1278 15.8318C34.494 16.5267 33.5586 16.8742 32.3215 16.8742C31.0844 16.8742 30.1489 16.5267 29.5151 15.8318C28.8813 15.1369 28.5644 14.1403 28.5644 12.8422V11.8571H30.9469V13.0025C30.9469 13.5829 31.0653 13.9876 31.302 14.2167C31.5387 14.4458 31.8556 14.5603 32.2527 14.5603C32.6498 14.5603 32.9667 14.4458 33.2035 14.2167C33.4402 13.9876 33.5585 13.5829 33.5585 13.0025C33.5585 12.4527 33.4364 11.9678 33.192 11.5478C32.9476 11.1278 32.6422 10.7307 32.2756 10.3565C31.9091 9.98234 31.5158 9.60816 31.0958 9.23398C30.6758 8.8598 30.2825 8.45125 29.916 8.00834C29.5495 7.56543 29.244 7.06144 28.9996 6.49634C28.7553 5.93125 28.6331 5.26689 28.6331 4.50325ZM37.0473 0.654525H44.8364V2.94543H42.2018V16.6909H39.6818V2.94543H37.0473V0.654525ZM51.4636 16.6909C51.4331 16.584 51.4025 16.4847 51.372 16.3931C51.3415 16.3014 51.3147 16.1869 51.2918 16.0494C51.2689 15.912 51.2536 15.7363 51.246 15.5225C51.2384 15.3087 51.2345 15.0414 51.2345 14.7207V12.2007C51.2345 11.4523 51.1047 10.9254 50.8451 10.62C50.5855 10.3145 50.1655 10.1618 49.5851 10.1618H48.7145V16.6909H46.1945V0.654525H49.9975C51.3109 0.654525 52.2616 0.959977 52.8496 1.57089C53.4376 2.1818 53.7316 3.10579 53.7316 4.34289V5.60289C53.7316 7.25235 53.1818 8.3367 52.0822 8.85598C52.7236 9.11562 53.1627 9.53943 53.3995 10.1274C53.6362 10.7154 53.7545 11.4294 53.7545 12.2694V14.7436C53.7545 15.1407 53.7698 15.4882 53.8004 15.786C53.8309 16.0838 53.9073 16.3854 54.0295 16.6909H51.4636ZM48.7146 2.94543V7.87089H49.6996C50.1731 7.87089 50.5435 7.74871 50.8107 7.50434C51.078 7.25998 51.2116 6.81707 51.2116 6.17562V4.59489C51.2116 4.01452 51.1086 3.59453 50.9024 3.33489C50.6962 3.07525 50.3716 2.94543 49.9287 2.94543H48.7146ZM58.068 0.654525V13.0254C58.068 13.6058 58.1864 14.0105 58.4231 14.2396C58.6598 14.4687 58.9767 14.5833 59.3738 14.5833C59.7709 14.5833 60.0878 14.4687 60.3245 14.2396C60.5613 14.0105 60.6796 13.6058 60.6796 13.0254V0.654525H63.0622V12.8651C63.0622 14.1633 62.7453 15.1598 62.1115 15.8547C61.4776 16.5496 60.5422 16.8971 59.3051 16.8971C58.068 16.8971 57.1325 16.5496 56.4987 15.8547C55.8649 15.1598 55.548 14.1633 55.548 12.8651V0.654525H58.068ZM71.9247 0.654525H79.7138V2.94543H77.0793V16.6909H74.5593V2.94543H71.9247V0.654525Z" fill="#171819"/>
<path fill-rule="evenodd" clip-rule="evenodd" d="M64.2593 8.98834L70.8047 0.806519V17.1702L64.2593 8.98834Z" fill="#00A4E5"/>
</svg>
